<svg width="44" height="44" viewBox="0 0 44 44" fill="none" xmlns="http://www.w3.org/2000/svg">
<path d="M42.4336 32.0835V38.3335C42.4359 38.9137 42.3171 39.4881 42.0846 40.0197C41.8522 40.5513 41.5113 41.0285 41.0837 41.4208C40.6562 41.813 40.1514 42.1116 39.6018 42.2975C39.0522 42.4834 38.4698 42.5524 37.8919 42.5002C31.4811 41.8036 25.3232 39.613 19.9127 36.1044C14.8791 32.9058 10.6114 28.6381 7.41274 23.6044C3.89186 18.1694 1.70075 11.9814 1.01691 5.54187C0.964848 4.96576 1.03332 4.38512 1.21795 3.83692C1.40259 3.28872 1.69935 2.78497 2.08934 2.35775C2.47933 1.93052 2.954 1.58918 3.48314 1.35546C4.01228 1.12173 4.58429 1.00075 5.16274 1.0002H11.4127C12.4238 0.990251 13.404 1.34828 14.1706 2.00756C14.9372 2.66684 15.4379 3.58238 15.5794 4.58354C15.8432 6.58367 16.3324 8.54755 17.0377 10.4377C17.318 11.1834 17.3787 11.9938 17.2125 12.7729C17.0464 13.552 16.6604 14.2671 16.1002 14.8335L13.4544 17.4794C16.4202 22.6951 20.7387 27.0136 25.9544 29.9794L28.6002 27.3335C29.1667 26.7734 29.8818 26.3874 30.6609 26.2212C31.44 26.0551 32.2504 26.1157 32.9961 26.396C34.8862 27.1013 36.8501 27.5906 38.8502 27.8544C39.8623 27.9971 40.7865 28.5069 41.4472 29.2866C42.1079 30.0664 42.4589 31.0618 42.4336 32.0835Z" stroke="#326221" stroke-width="2" stroke-linecap="round" stroke-linejoin="round"/>
</svg>
